<?xml version="1.0" encoding="utf-8"?>
<!-- Generator: Adobe Illustrator 20.0.0, SVG Export Plug-In . SVG Version: 6.00 Build 0)  -->
<svg version="1.1" id="Layer_1" xmlns="http://www.w3.org/2000/svg" xmlns:xlink="http://www.w3.org/1999/xlink" x="0px" y="0px"
	 viewBox="0 0 50 50" style="enable-background:new 0 0 50 50;" xml:space="preserve">
<style type="text/css">
	.st0{fill:#282828;}
	.st1{fill:#FFFFFF;}
</style>
<path class="st0" d="M2,0h46c1.1,0,2,0.9,2,2v46c0,1.1-0.9,2-2,2H2c-1.1,0-2-0.9-2-2V2C0,0.9,0.9,0,2,0z"/>
<g>
	<path class="st1" d="M25.3,16.1c-3.2,0-4.8,3-4.8,9.1c0,6.1,1.6,9.1,4.9,9.1c2.3,0,3.9-1.2,4.6-3.5h-2.6v-7.4h16.1v20.2H33.1
		l-0.5-2.1c-1.5,1.8-4.3,2.7-8.4,2.7c-5.1,0-9.3-1.7-12.7-5c-3.3-3.3-5-8.1-5-14.4c0-6.2,1.9-11,5.6-14.4c3.7-3.3,7.9-5,12.6-5
		s8.6,1.1,11.8,3.2c3.3,2.1,5.3,5.1,6.2,8.9l-12.8,3C29.3,17.7,27.7,16.1,25.3,16.1L25.3,16.1z"/>
</g>
</svg>
