<?xml version="1.0" encoding="utf-8"?>
<!-- Generator: Adobe Illustrator 20.0.0, SVG Export Plug-In . SVG Version: 6.00 Build 0)  -->
<svg version="1.1" id="Layer_1" xmlns="http://www.w3.org/2000/svg" xmlns:xlink="http://www.w3.org/1999/xlink" x="0px" y="0px"
	 viewBox="0 0 132 24" style="enable-background:new 0 0 132 24;" xml:space="preserve">
<style type="text/css">
	.st0{fill:#FFFFFF;}
</style>
<g>
	<path class="st0" d="M10.6,15.8H8L7.7,17H4.5l3-9.8h4l3,9.8h-3.7L10.6,15.8z M9.9,13.3l-0.7-2.9l-0.6,2.9H9.9z"/>
	<path class="st0" d="M23.4,10.9v2.5h-4.4v1.2h5V17h-8.5V7.2h8.4v2.5h-4.8v1.2H23.4z"/>
	<path class="st0" d="M28.7,13.6V17h-3.5V7.2h5.7c1.1,0,2,0.3,2.6,0.8c0.6,0.6,1,1.3,1,2.4c0,1.4-0.6,2.4-1.8,2.9l2,3.7h-3.9
		L29,13.6H28.7z M28.7,9.7v1.4h1.4c0.4,0,0.6-0.2,0.6-0.7c0-0.5-0.2-0.7-0.6-0.7H28.7z"/>
	<path class="st0" d="M36.4,8.2C37.3,7.4,38.5,7,40,7c1.5,0,2.7,0.4,3.6,1.3c0.9,0.8,1.3,2.1,1.3,3.8s-0.4,3-1.3,3.9
		c-0.9,0.9-2.1,1.3-3.6,1.3c-1.5,0-2.7-0.5-3.6-1.4c-0.9-0.9-1.3-2.2-1.3-3.9C35.1,10.4,35.5,9.1,36.4,8.2z M40,14.5
		c0.9,0,1.3-0.8,1.3-2.4c0-1.6-0.4-2.4-1.3-2.4c-0.9,0-1.3,0.8-1.3,2.4C38.7,13.7,39.1,14.5,40,14.5z"/>
	<path class="st0" d="M50.3,9.7c-0.9,0-1.3,0.8-1.3,2.4c0,1.6,0.4,2.4,1.3,2.4c0.6,0,1.1-0.4,1.2-1.2l3.4,0.8
		c-0.2,0.9-0.7,1.6-1.5,2.3c-0.8,0.6-1.9,1-3.3,1c-1.4,0-2.6-0.5-3.5-1.4c-0.9-0.9-1.4-2.2-1.4-3.9s0.5-2.9,1.5-3.8
		c1-0.9,2.1-1.3,3.3-1.3c1.2,0,2.3,0.3,3.1,0.8c0.9,0.6,1.4,1.4,1.6,2.4l-3.4,0.8C51.4,10.1,50.9,9.7,50.3,9.7z"/>
	<path class="st0" d="M59.4,13.6c0,0.6,0.3,0.9,0.9,0.9c0.6,0,0.9-0.3,0.9-0.9V7.2h3.5v6.4c0,1.2-0.4,2-1.2,2.7
		c-0.8,0.6-1.9,0.9-3.2,0.9c-1.4,0-2.4-0.3-3.2-1c-0.8-0.6-1.2-1.5-1.2-2.6V7.2h3.5V13.6z"/>
	<path class="st0" d="M66.1,7.2h3.5v7.3h4.7V17h-8.2V7.2z"/>
	<path class="st0" d="M82.4,7.2v2.5h-2.7V17h-3.5V9.7h-2.7V7.2H82.4z"/>
	<path class="st0" d="M86.9,13.6c0,0.6,0.3,0.9,0.9,0.9s0.9-0.3,0.9-0.9V7.2h3.5v6.4c0,1.2-0.4,2-1.2,2.7c-0.8,0.6-1.9,0.9-3.2,0.9
		s-2.4-0.3-3.2-1c-0.8-0.6-1.2-1.5-1.2-2.6V7.2h3.5V13.6z"/>
	<path class="st0" d="M97.2,13.6V17h-3.5V7.2h5.7c1.1,0,2,0.3,2.6,0.8s1,1.3,1,2.4c0,1.4-0.6,2.4-1.8,2.9l2,3.7h-3.9l-1.7-3.4H97.2z
		 M97.2,9.7v1.4h1.4c0.4,0,0.6-0.2,0.6-0.7c0-0.5-0.2-0.7-0.6-0.7H97.2z"/>
	<path class="st0" d="M104,7.2h3.5V17H104V7.2z"/>
	<path class="st0" d="M112.6,14.7c0.5,0,0.8-0.2,0.8-0.5c0-0.3-0.2-0.5-0.6-0.7l-1.2-0.4c-1.9-0.6-2.9-1.6-2.9-2.8
		c0-1.1,0.4-2,1.2-2.5c0.8-0.5,1.9-0.8,3.2-0.8c1.7,0,3.1,0.7,3.9,2.2l-2.9,0.9c-0.3-0.4-0.6-0.6-1-0.6s-0.6,0.1-0.6,0.4
		c0,0.3,0.2,0.5,0.7,0.6l1.5,0.5c1.8,0.6,2.7,1.5,2.7,2.7s-0.4,2.1-1.2,2.6c-0.8,0.6-1.8,0.9-3.1,0.9c-2.2,0-3.8-0.8-4.8-2.5
		l2.7-1.2C111.2,14.3,111.8,14.7,112.6,14.7z"/>
	<path class="st0" d="M126.8,7.2v2.5h-2.7V17h-3.5V9.7h-2.7V7.2H126.8z"/>
</g>
</svg>
